<?xml version="1.0" encoding="utf-8"?>
<!-- Generator: Adobe Illustrator 22.1.0, SVG Export Plug-In . SVG Version: 6.00 Build 0)  -->
<svg version="1.1" id="Capa_1" xmlns="http://www.w3.org/2000/svg" xmlns:xlink="http://www.w3.org/1999/xlink" x="0px" y="0px"
	 viewBox="0 0 96.1 96.1" style="enable-background:new 0 0 96.1 96.1;" xml:space="preserve">
<style type="text/css">
	.st0{fill:#FFFFFF;}
</style>
<g>
	<path class="st0" d="M63.5,17.2l-8,0c-9,0-14.8,6-14.8,15.2v7h-8c-0.7,0-1.3,0.6-1.3,1.3v10.1c0,0.7,0.6,1.3,1.3,1.3h8v25.6
		c0,0.7,0.6,1.3,1.3,1.3h10.5c0.7,0,1.3-0.6,1.3-1.3V52.1h9.4c0.7,0,1.3-0.6,1.3-1.3l0-10.1c0-0.3-0.1-0.7-0.4-0.9s-0.6-0.4-0.9-0.4
		h-9.4v-5.9c0-2.9,0.7-4.3,4.4-4.3l5.4,0c0.7,0,1.3-0.6,1.3-1.3v-9.4C64.8,17.8,64.2,17.2,63.5,17.2z"/>
</g>
</svg>
