<?xml version="1.0" encoding="utf-8"?>
<!-- Generator: Adobe Illustrator 22.1.0, SVG Export Plug-In . SVG Version: 6.00 Build 0)  -->
<svg version="1.1" id="Camada_1" xmlns="http://www.w3.org/2000/svg" xmlns:xlink="http://www.w3.org/1999/xlink" x="0px" y="0px"
	 viewBox="0 0 256 256" style="enable-background:new 0 0 256 256;" xml:space="preserve">
<style type="text/css">
	.st0{fill:#FFFFFF;}
</style>
<g>
	<path class="st0" d="M128,54.4c24,0,26.8,0.1,36.3,0.5c8.8,0.4,13.5,1.9,16.7,3.1c4.2,1.6,7.2,3.6,10.3,6.7
		c3.1,3.1,5.1,6.1,6.7,10.3c1.2,3.2,2.7,7.9,3.1,16.7c0.4,9.5,0.5,12.3,0.5,36.3s-0.1,26.8-0.5,36.3c-0.4,8.8-1.9,13.5-3.1,16.7
		c-1.6,4.2-3.6,7.2-6.7,10.3c-3.1,3.1-6.1,5.1-10.3,6.7c-3.2,1.2-7.9,2.7-16.7,3.1c-9.5,0.4-12.3,0.5-36.3,0.5s-26.8-0.1-36.3-0.5
		c-8.8-0.4-13.5-1.9-16.7-3.1c-4.2-1.6-7.2-3.6-10.3-6.7c-3.1-3.1-5.1-6.1-6.7-10.3c-1.2-3.2-2.7-7.9-3.1-16.7
		c-0.4-9.5-0.5-12.3-0.5-36.3s0.1-26.8,0.5-36.3c0.4-8.8,1.9-13.5,3.1-16.7c1.6-4.2,3.6-7.2,6.7-10.3c3.1-3.1,6.1-5.1,10.3-6.7
		c3.2-1.2,7.9-2.7,16.7-3.1C101.2,54.5,104,54.4,128,54.4 M128,38.2c-24.4,0-27.4,0.1-37,0.5c-9.6,0.4-16.1,2-21.8,4.2
		c-5.9,2.3-10.9,5.4-15.9,10.4s-8.1,10-10.4,15.9c-2.2,5.7-3.7,12.2-4.2,21.8c-0.4,9.6-0.5,12.6-0.5,37s0.1,27.4,0.5,37
		c0.4,9.6,2,16.1,4.2,21.8c2.3,5.9,5.4,10.9,10.4,15.9s10,8.1,15.9,10.4c5.7,2.2,12.2,3.7,21.8,4.2c9.6,0.4,12.6,0.5,37,0.5
		s27.4-0.1,37-0.5c9.6-0.4,16.1-2,21.8-4.2c5.9-2.3,10.9-5.4,15.9-10.4c5-5,8.1-10,10.4-15.9c2.2-5.7,3.7-12.2,4.2-21.8
		c0.4-9.6,0.5-12.6,0.5-37s-0.1-27.4-0.5-37c-0.4-9.6-2-16.1-4.2-21.8c-2.3-5.9-5.4-10.9-10.4-15.9c-5-5-10-8.1-15.9-10.4
		c-5.7-2.2-12.2-3.7-21.8-4.2C155.4,38.3,152.4,38.2,128,38.2z M128,81.9c-25.5,0-46.1,20.6-46.1,46.1s20.6,46.1,46.1,46.1
		s46.1-20.6,46.1-46.1S153.5,81.9,128,81.9z M128,157.9c-16.5,0-29.9-13.4-29.9-29.9s13.4-29.9,29.9-29.9s29.9,13.4,29.9,29.9
		S144.5,157.9,128,157.9z M186.7,80.1c0,5.9-4.8,10.8-10.8,10.8c-5.9,0-10.8-4.8-10.8-10.8s4.8-10.8,10.8-10.8
		C181.9,69.3,186.7,74.1,186.7,80.1z"/>
</g>
</svg>
