<?xml version="1.0" encoding="utf-8"?>
<!-- Generator: Adobe Illustrator 22.1.0, SVG Export Plug-In . SVG Version: 6.00 Build 0)  -->
<svg version="1.1" id="Camada_1" xmlns="http://www.w3.org/2000/svg" xmlns:xlink="http://www.w3.org/1999/xlink" x="0px" y="0px"
	 viewBox="0 0 24 24" style="enable-background:new 0 0 24 24;" xml:space="preserve">
<style type="text/css">
	.st0{fill:#FFFFFF;}
</style>
<path class="st0" d="M19.9,7.1c-0.6,0.3-1.2,0.4-1.9,0.5c0.7-0.4,1.2-1,1.4-1.8c-0.6,0.4-1.3,0.6-2.1,0.8c-0.6-0.6-1.4-1-2.4-1
	c-2.1,0-3.6,1.9-3.1,4C9.2,9.4,6.8,8.1,5.2,6.2c-0.8,1.5-0.4,3.4,1,4.3c-0.5,0-1-0.2-1.5-0.4c0,1.5,1,2.9,2.6,3.2
	c-0.5,0.1-1,0.2-1.5,0.1c0.4,1.3,1.6,2.2,3,2.2c-1.4,1.1-3.1,1.5-4.8,1.3c1.4,0.9,3.1,1.5,5,1.5c6,0,9.4-5.1,9.2-9.6
	C18.9,8.3,19.4,7.8,19.9,7.1z"/>
</svg>
